<?xml version="1.0" encoding="UTF-8" standalone="no"?>
<!DOCTYPE svg PUBLIC "-//W3C//DTD SVG 1.1//EN" "http://www.w3.org/Graphics/SVG/1.1/DTD/svg11.dtd">
<svg width="100%" height="100%" viewBox="0 0 318 195" version="1.1" xmlns="http://www.w3.org/2000/svg" xmlns:xlink="http://www.w3.org/1999/xlink" xml:space="preserve" xmlns:serif="http://www.serif.com/" style="fill-rule:evenodd;clip-rule:evenodd;stroke-linejoin:round;stroke-miterlimit:1.5;">
    <g id="SmartTooltipOptions">
        <path d="M317.281,6.059c0,-3.206 -2.602,-5.809 -5.808,-5.809l-305.414,0c-3.206,0 -5.809,2.603 -5.809,5.809l0,182.01c0,3.206 2.603,5.808 5.809,5.808l305.414,0c3.206,0 5.808,-2.602 5.808,-5.808l0,-182.01Z" style="fill:#565656;stroke:#000;stroke-width:0.5px;"/>
        <g id="titleFormat">
            <g id="Input">
                <g id="Base">
                    <path d="M68.895,43.692c0,-0.663 -0.538,-1.2 -1.2,-1.2l-57.6,0c-0.662,0 -1.2,0.537 -1.2,1.2l0,8.4c0,0.662 0.538,1.2 1.2,1.2l57.6,0c0.662,0 1.2,-0.538 1.2,-1.2l0,-8.4Z" style="fill:#fff;"/>
                    <path d="M67.726,42.492l0.031,0.001l0.03,0.002l0.031,0.003l0.03,0.003l0.03,0.005l0.029,0.004l0.03,0.006l0.058,0.014l0.057,0.016l0.055,0.019l0.055,0.021l0.053,0.024l0.052,0.027l0.05,0.029l0.049,0.031l0.047,0.033l0.045,0.036l0.044,0.038l0.041,0.039l0.04,0.042l0.038,0.044l0.036,0.045l0.033,0.047l0.031,0.049l0.029,0.05l0.027,0.052l0.024,0.053l0.021,0.054l0.019,0.056l0.016,0.057l0.014,0.058l0.005,0.029l0.005,0.03l0.004,0.03l0.004,0.03l0.003,0.03l0.001,0.031l0.002,0.031l0,0.031l0,8.4l0,0.031l-0.002,0.03l-0.001,0.031l-0.003,0.03l-0.004,0.03l-0.004,0.03l-0.005,0.03l-0.005,0.029l-0.014,0.058l-0.016,0.057l-0.019,0.056l-0.021,0.055l-0.024,0.053l-0.027,0.052l-0.029,0.05l-0.031,0.048l-0.033,0.047l-0.036,0.046l-0.038,0.043l-0.04,0.042l-0.041,0.04l-0.044,0.038l-0.045,0.035l-0.047,0.034l-0.049,0.031l-0.05,0.029l-0.052,0.026l-0.053,0.024l-0.055,0.022l-0.055,0.019l-0.057,0.016l-0.058,0.013l-0.03,0.006l-0.029,0.005l-0.03,0.004l-0.03,0.004l-0.031,0.002l-0.03,0.002l-0.031,0.001l-0.031,0.001l-57.6,0l-0.031,-0.001l-0.031,-0.001l-0.03,-0.002l-0.031,-0.002l-0.03,-0.004l-0.03,-0.004l-0.029,-0.005l-0.03,-0.006l-0.058,-0.013l-0.057,-0.016l-0.055,-0.019l-0.055,-0.022l-0.053,-0.024l-0.052,-0.026l-0.05,-0.029l-0.049,-0.031l-0.047,-0.034l-0.045,-0.035l-0.044,-0.038l-0.041,-0.04l-0.04,-0.042l-0.038,-0.043l-0.035,-0.046l-0.034,-0.047l-0.031,-0.048l-0.029,-0.05l-0.027,-0.052l-0.024,-0.053l-0.021,-0.055l-0.019,-0.056l-0.016,-0.057l-0.014,-0.058l-0.005,-0.029l-0.005,-0.03l-0.004,-0.03l-0.004,-0.03l-0.002,-0.03l-0.002,-0.031l-0.002,-0.03l0,-0.031l0,-8.4l0,-0.031l0.002,-0.031l0.002,-0.031l0.002,-0.03l0.004,-0.03l0.004,-0.03l0.005,-0.03l0.005,-0.029l0.014,-0.058l0.016,-0.057l0.019,-0.056l0.021,-0.054l0.024,-0.053l0.027,-0.052l0.029,-0.05l0.031,-0.049l0.034,-0.047l0.035,-0.045l0.038,-0.044l0.04,-0.042l0.041,-0.039l0.044,-0.038l0.045,-0.036l0.047,-0.033l0.049,-0.031l0.05,-0.029l0.052,-0.027l0.053,-0.024l0.055,-0.021l0.055,-0.019l0.057,-0.016l0.058,-0.014l0.03,-0.006l0.029,-0.004l0.03,-0.005l0.03,-0.003l0.031,-0.003l0.03,-0.002l0.031,-0.001l0.031,0l57.6,0l0.031,0Zm-57.625,1l-0.011,0l-0.006,0l-0.006,0l-0.004,0.001l-0.005,0l-0.006,0.001l-0.003,0.001l-0.016,0.003l-0.008,0.003l-0.009,0.003l-0.009,0.003l-0.008,0.004l-0.009,0.005l-0.009,0.004l-0.009,0.006l-0.008,0.006l-0.006,0.005l-0.007,0.006l-0.008,0.007l-0.006,0.007l-0.006,0.007l-0.008,0.011l-0.006,0.007l-0.004,0.006l-0.005,0.01l-0.005,0.008l-0.003,0.007l-0.004,0.011l-0.003,0.01l-0.003,0.008l-0.003,0.014l0,0.003l-0.001,0.004l-0.001,0.005l0,0.005l-0.001,0.012l0,0.006l0,0.007l0,8.388l0,0.006l0,0.006l0.001,0.012l0,0.006l0.001,0.004l0.001,0.005l0,0.002l0.003,0.015l0.003,0.008l0.003,0.009l0.004,0.011l0.003,0.007l0.005,0.008l0.005,0.01l0.004,0.006l0.006,0.008l0.008,0.01l0.006,0.008l0.006,0.006l0.008,0.007l0.007,0.006l0.006,0.005l0.008,0.006l0.009,0.006l0.009,0.005l0.009,0.005l0.008,0.003l0.009,0.004l0.009,0.003l0.008,0.002l0.016,0.004l0.003,0l0.006,0.001l0.005,0.001l0.004,0l0.006,0l0.006,0.001l0.011,0l57.588,0l0.012,0l0.005,-0.001l0.005,0l0.006,0l0.004,-0.001l0.006,-0.001l0.004,0l0.015,-0.004l0.008,-0.002l0.009,-0.003l0.009,-0.004l0.008,-0.003l0.009,-0.005l0.009,-0.005l0.009,-0.006l0.006,-0.004l0.008,-0.007l0.009,-0.007l0.006,-0.006l0.006,-0.006l0.006,-0.008l0.009,-0.01l0.005,-0.008l0.004,-0.006l0.006,-0.01l0.004,-0.008l0.003,-0.007l0.003,-0.008l0.004,-0.012l0.003,-0.008l0.002,-0.013l0.002,-0.006l0,-0.004l0.001,-0.003l0,-0.006l0,-0.005l0.001,-0.007l0,-0.012l0,-8.388l0,-0.013l-0.001,-0.006l0,-0.006l0,-0.005l-0.001,-0.004l0,-0.004l-0.002,-0.006l-0.002,-0.012l-0.003,-0.008l-0.004,-0.012l-0.003,-0.009l-0.003,-0.007l-0.004,-0.008l-0.006,-0.01l-0.004,-0.006l-0.005,-0.007l-0.009,-0.011l-0.006,-0.007l-0.006,-0.007l-0.006,-0.005l-0.009,-0.008l-0.008,-0.006l-0.006,-0.005l-0.009,-0.006l-0.009,-0.004l-0.009,-0.005l-0.008,-0.004l-0.009,-0.003l-0.009,-0.003l-0.008,-0.003l-0.015,-0.003l-0.004,-0.001l-0.006,-0.001l-0.004,0l-0.006,-0.001l-0.005,0l-0.005,0l-0.012,0l-57.588,0Z" style="fill:#0081d5;"/>
                </g>
            </g>
            <text x="72.695px" y="50.482px" style="font-family:'ArialNarrow', 'Arial', sans-serif;font-stretch:condensed;font-size:9px;fill:#fff;">Формат заголовка</text>
        </g>
        <g id="descrFormat">
            <g id="Input1" serif:id="Input">
                <g id="Base1" serif:id="Base">
                    <path d="M68.895,60.692c0,-0.663 -0.538,-1.2 -1.2,-1.2l-57.6,0c-0.662,0 -1.2,0.537 -1.2,1.2l0,8.4c0,0.662 0.538,1.2 1.2,1.2l57.6,0c0.662,0 1.2,-0.538 1.2,-1.2l0,-8.4Z" style="fill:#fff;"/>
                    <path d="M67.726,59.492l0.031,0.001l0.03,0.002l0.031,0.003l0.03,0.003l0.03,0.005l0.029,0.004l0.03,0.006l0.058,0.014l0.057,0.016l0.055,0.019l0.055,0.021l0.053,0.024l0.052,0.027l0.05,0.029l0.049,0.031l0.047,0.033l0.045,0.036l0.044,0.038l0.041,0.039l0.04,0.042l0.038,0.044l0.036,0.045l0.033,0.047l0.031,0.049l0.029,0.05l0.027,0.052l0.024,0.053l0.021,0.054l0.019,0.056l0.016,0.057l0.014,0.058l0.005,0.029l0.005,0.03l0.004,0.03l0.004,0.03l0.003,0.03l0.001,0.031l0.002,0.031l0,0.031l0,8.4l0,0.031l-0.002,0.03l-0.001,0.031l-0.003,0.03l-0.004,0.03l-0.004,0.03l-0.005,0.03l-0.005,0.029l-0.014,0.058l-0.016,0.057l-0.019,0.056l-0.021,0.055l-0.024,0.053l-0.027,0.052l-0.029,0.05l-0.031,0.048l-0.033,0.047l-0.036,0.046l-0.038,0.043l-0.04,0.042l-0.041,0.04l-0.044,0.038l-0.045,0.035l-0.047,0.034l-0.049,0.031l-0.05,0.029l-0.052,0.026l-0.053,0.024l-0.055,0.022l-0.055,0.019l-0.057,0.016l-0.058,0.013l-0.03,0.006l-0.029,0.005l-0.03,0.004l-0.03,0.004l-0.031,0.002l-0.03,0.002l-0.031,0.001l-0.031,0.001l-57.6,0l-0.031,-0.001l-0.031,-0.001l-0.03,-0.002l-0.031,-0.002l-0.03,-0.004l-0.03,-0.004l-0.029,-0.005l-0.03,-0.006l-0.058,-0.013l-0.057,-0.016l-0.055,-0.019l-0.055,-0.022l-0.053,-0.024l-0.052,-0.026l-0.05,-0.029l-0.049,-0.031l-0.047,-0.034l-0.045,-0.035l-0.044,-0.038l-0.041,-0.04l-0.04,-0.042l-0.038,-0.043l-0.035,-0.046l-0.034,-0.047l-0.031,-0.048l-0.029,-0.05l-0.027,-0.052l-0.024,-0.053l-0.021,-0.055l-0.019,-0.056l-0.016,-0.057l-0.014,-0.058l-0.005,-0.029l-0.005,-0.03l-0.004,-0.03l-0.004,-0.03l-0.002,-0.03l-0.002,-0.031l-0.002,-0.03l0,-0.031l0,-8.4l0,-0.031l0.002,-0.031l0.002,-0.031l0.002,-0.03l0.004,-0.03l0.004,-0.03l0.005,-0.03l0.005,-0.029l0.014,-0.058l0.016,-0.057l0.019,-0.056l0.021,-0.054l0.024,-0.053l0.027,-0.052l0.029,-0.05l0.031,-0.049l0.034,-0.047l0.035,-0.045l0.038,-0.044l0.04,-0.042l0.041,-0.039l0.044,-0.038l0.045,-0.036l0.047,-0.033l0.049,-0.031l0.05,-0.029l0.052,-0.027l0.053,-0.024l0.055,-0.021l0.055,-0.019l0.057,-0.016l0.058,-0.014l0.03,-0.006l0.029,-0.004l0.03,-0.005l0.03,-0.003l0.031,-0.003l0.03,-0.002l0.031,-0.001l0.031,0l57.6,0l0.031,0Zm-57.625,1l-0.011,0l-0.006,0l-0.006,0l-0.004,0.001l-0.006,0l-0.005,0.001l-0.003,0.001l-0.016,0.003l-0.008,0.003l-0.009,0.003l-0.009,0.003l-0.008,0.004l-0.009,0.005l-0.009,0.004l-0.009,0.006l-0.008,0.006l-0.006,0.005l-0.007,0.006l-0.008,0.007l-0.006,0.007l-0.006,0.007l-0.008,0.011l-0.006,0.007l-0.004,0.006l-0.005,0.01l-0.005,0.008l-0.003,0.007l-0.004,0.011l-0.003,0.01l-0.003,0.008l-0.003,0.014l0,0.003l-0.001,0.004l-0.001,0.005l0,0.005l-0.001,0.012l0,0.006l0,0.007l0,8.388l0,0.006l0,0.006l0.001,0.012l0,0.006l0.001,0.004l0.001,0.005l0,0.002l0.003,0.015l0.003,0.008l0.003,0.009l0.004,0.011l0.003,0.007l0.005,0.008l0.005,0.01l0.004,0.006l0.006,0.008l0.008,0.01l0.006,0.008l0.006,0.006l0.008,0.007l0.007,0.006l0.006,0.005l0.008,0.006l0.009,0.006l0.009,0.005l0.009,0.005l0.008,0.003l0.009,0.004l0.009,0.003l0.008,0.002l0.016,0.004l0.003,0l0.005,0.001l0.006,0.001l0.004,0l0.006,0l0.005,0.001l0.012,0l57.588,0l0.012,0l0.005,-0.001l0.005,0l0.006,0l0.004,-0.001l0.006,-0.001l0.004,0l0.015,-0.004l0.008,-0.002l0.009,-0.003l0.009,-0.004l0.008,-0.003l0.009,-0.005l0.009,-0.005l0.009,-0.006l0.006,-0.004l0.008,-0.007l0.009,-0.007l0.006,-0.006l0.006,-0.006l0.006,-0.008l0.009,-0.01l0.005,-0.008l0.004,-0.006l0.006,-0.01l0.004,-0.008l0.003,-0.007l0.003,-0.008l0.004,-0.012l0.003,-0.008l0.002,-0.013l0.002,-0.006l0,-0.004l0.001,-0.003l0,-0.006l0,-0.005l0.001,-0.007l0,-0.012l0,-8.388l0,-0.013l-0.001,-0.006l0,-0.006l0,-0.005l-0.001,-0.004l0,-0.004l-0.002,-0.006l-0.002,-0.012l-0.003,-0.008l-0.004,-0.012l-0.003,-0.009l-0.003,-0.007l-0.004,-0.008l-0.006,-0.01l-0.004,-0.006l-0.005,-0.007l-0.009,-0.011l-0.006,-0.007l-0.006,-0.007l-0.006,-0.005l-0.009,-0.008l-0.008,-0.006l-0.006,-0.005l-0.009,-0.006l-0.009,-0.004l-0.009,-0.005l-0.008,-0.004l-0.009,-0.003l-0.009,-0.003l-0.008,-0.003l-0.015,-0.003l-0.004,-0.001l-0.006,-0.001l-0.004,0l-0.006,-0.001l-0.005,0l-0.005,0l-0.012,0l-57.588,0Z" style="fill:#0081d5;"/>
                </g>
            </g>
            <text x="72.695px" y="67.482px" style="font-family:'ArialNarrow', 'Arial', sans-serif;font-stretch:condensed;font-size:9px;fill:#fff;">Формат описания</text>
        </g>
        <g id="legendFormat">
            <g id="Input2" serif:id="Input">
                <g id="Base2" serif:id="Base">
                    <path d="M209.891,43.692c0,-0.663 -0.538,-1.2 -1.2,-1.2l-57.6,0c-0.662,0 -1.2,0.537 -1.2,1.2l0,8.4c0,0.662 0.538,1.2 1.2,1.2l57.6,0c0.662,0 1.2,-0.538 1.2,-1.2l0,-8.4Z" style="fill:#fff;"/>
                    <path d="M208.722,42.492l0.031,0.001l0.03,0.002l0.031,0.003l0.03,0.003l0.03,0.005l0.029,0.004l0.03,0.006l0.058,0.014l0.057,0.016l0.055,0.019l0.055,0.021l0.053,0.024l0.052,0.027l0.05,0.029l0.049,0.031l0.047,0.033l0.045,0.036l0.044,0.038l0.041,0.039l0.04,0.042l0.038,0.044l0.035,0.045l0.034,0.047l0.031,0.049l0.029,0.05l0.027,0.052l0.024,0.053l0.021,0.054l0.019,0.056l0.016,0.057l0.014,0.058l0.005,0.029l0.005,0.03l0.004,0.03l0.004,0.03l0.003,0.03l0.001,0.031l0.002,0.031l0,0.031l0,8.4l0,0.031l-0.002,0.03l-0.001,0.031l-0.003,0.03l-0.004,0.03l-0.004,0.03l-0.005,0.03l-0.005,0.029l-0.014,0.058l-0.016,0.057l-0.019,0.056l-0.021,0.055l-0.024,0.053l-0.027,0.052l-0.029,0.05l-0.031,0.048l-0.034,0.047l-0.035,0.046l-0.038,0.043l-0.04,0.042l-0.041,0.04l-0.044,0.038l-0.045,0.035l-0.047,0.034l-0.049,0.031l-0.05,0.029l-0.052,0.026l-0.053,0.024l-0.055,0.022l-0.055,0.019l-0.057,0.016l-0.058,0.013l-0.03,0.006l-0.029,0.005l-0.03,0.004l-0.03,0.004l-0.031,0.002l-0.03,0.002l-0.031,0.001l-0.031,0.001l-57.6,0l-0.031,-0.001l-0.031,-0.001l-0.03,-0.002l-0.031,-0.002l-0.03,-0.004l-0.03,-0.004l-0.029,-0.005l-0.03,-0.006l-0.058,-0.013l-0.057,-0.016l-0.055,-0.019l-0.055,-0.022l-0.053,-0.024l-0.052,-0.026l-0.05,-0.029l-0.049,-0.031l-0.047,-0.034l-0.045,-0.035l-0.044,-0.038l-0.041,-0.04l-0.04,-0.042l-0.038,-0.043l-0.035,-0.046l-0.034,-0.047l-0.031,-0.048l-0.029,-0.05l-0.027,-0.052l-0.024,-0.053l-0.021,-0.055l-0.019,-0.056l-0.016,-0.057l-0.014,-0.058l-0.005,-0.029l-0.005,-0.03l-0.004,-0.03l-0.004,-0.03l-0.002,-0.03l-0.002,-0.031l-0.002,-0.03l0,-0.031l0,-8.4l0,-0.031l0.002,-0.031l0.002,-0.031l0.002,-0.03l0.004,-0.03l0.004,-0.03l0.005,-0.03l0.005,-0.029l0.014,-0.058l0.016,-0.057l0.019,-0.056l0.021,-0.054l0.024,-0.053l0.027,-0.052l0.029,-0.05l0.031,-0.049l0.034,-0.047l0.035,-0.045l0.038,-0.044l0.04,-0.042l0.041,-0.039l0.044,-0.038l0.045,-0.036l0.047,-0.033l0.049,-0.031l0.05,-0.029l0.052,-0.027l0.053,-0.024l0.055,-0.021l0.055,-0.019l0.057,-0.016l0.058,-0.014l0.03,-0.006l0.029,-0.004l0.03,-0.005l0.03,-0.003l0.031,-0.003l0.03,-0.002l0.031,-0.001l0.031,0l57.6,0l0.031,0Zm-57.625,1l-0.012,0l-0.005,0l-0.005,0l-0.006,0.001l-0.004,0l-0.005,0.001l-0.005,0.001l-0.014,0.003l-0.009,0.003l-0.009,0.003l-0.009,0.003l-0.009,0.004l-0.008,0.005l-0.009,0.004l-0.007,0.005l-0.008,0.006l-0.008,0.006l-0.009,0.008l-0.008,0.007l-0.004,0.005l-0.006,0.007l-0.007,0.008l-0.007,0.01l-0.005,0.009l-0.005,0.007l-0.004,0.008l-0.003,0.007l-0.003,0.009l-0.003,0.009l-0.003,0.011l-0.004,0.014l-0.001,0.009l-0.001,0.004l0,0.004l0,0.006l-0.001,0.006l0,0.013l0,8.388l0,0.012l0.001,0.007l0,0.005l0,0.005l0.001,0.004l0.001,0.008l0.004,0.015l0.003,0.011l0.003,0.009l0.003,0.008l0.003,0.007l0.004,0.008l0.005,0.008l0.005,0.008l0.007,0.01l0.007,0.008l0.006,0.008l0.004,0.004l0.008,0.008l0.009,0.007l0.008,0.007l0.008,0.005l0.007,0.005l0.009,0.005l0.008,0.004l0.009,0.004l0.009,0.004l0.009,0.003l0.009,0.002l0.014,0.003l0.005,0.001l0.005,0.001l0.004,0.001l0.006,0l0.005,0l0.005,0.001l0.012,0l57.588,0l0.011,0l0.006,-0.001l0.006,0l0.004,0l0.005,-0.001l0.006,-0.001l0.003,0l0.016,-0.004l0.009,-0.003l0.009,-0.002l0.008,-0.004l0.008,-0.003l0.008,-0.004l0.01,-0.006l0.009,-0.006l0.008,-0.006l0.006,-0.005l0.007,-0.006l0.008,-0.007l0.008,-0.008l0.006,-0.008l0.005,-0.006l0.005,-0.007l0.006,-0.009l0.005,-0.01l0.005,-0.008l0.003,-0.007l0.004,-0.011l0.003,-0.009l0.003,-0.008l0.003,-0.015l0,-0.002l0.001,-0.005l0.001,-0.004l0.001,-0.012l0,-0.006l0,0l0,-0.012l0,-8.388l0,-0.013l0,0l0,-0.006l-0.001,-0.011l-0.001,-0.005l-0.001,-0.004l0,-0.003l-0.003,-0.014l-0.003,-0.008l-0.003,-0.01l-0.004,-0.011l-0.003,-0.007l-0.005,-0.008l-0.005,-0.01l-0.006,-0.008l-0.005,-0.008l-0.005,-0.006l-0.006,-0.007l-0.008,-0.009l-0.008,-0.007l-0.007,-0.006l-0.006,-0.005l-0.008,-0.006l-0.009,-0.006l-0.01,-0.005l-0.008,-0.004l-0.008,-0.004l-0.008,-0.003l-0.009,-0.003l-0.009,-0.003l-0.016,-0.003l-0.003,-0.001l-0.006,-0.001l-0.005,0l-0.004,-0.001l-0.006,0l-0.006,0l-0.011,0l-57.588,0Z" style="fill:#0081d5;"/>
                </g>
            </g>
            <text x="213.691px" y="50.482px" style="font-family:'ArialNarrow', 'Arial', sans-serif;font-stretch:condensed;font-size:9px;fill:#fff;">Формат легенды</text>
        </g>
        <g id="legendValueFormat">
            <g id="Input3" serif:id="Input">
                <g id="Base3" serif:id="Base">
                    <path d="M209.891,60.692c0,-0.663 -0.538,-1.2 -1.2,-1.2l-57.6,0c-0.662,0 -1.2,0.537 -1.2,1.2l0,8.4c0,0.662 0.538,1.2 1.2,1.2l57.6,0c0.662,0 1.2,-0.538 1.2,-1.2l0,-8.4Z" style="fill:#fff;"/>
                    <path d="M208.722,59.492l0.031,0.001l0.03,0.002l0.031,0.003l0.03,0.003l0.03,0.005l0.029,0.004l0.03,0.006l0.058,0.014l0.057,0.016l0.055,0.019l0.055,0.021l0.053,0.024l0.052,0.027l0.05,0.029l0.049,0.031l0.047,0.033l0.045,0.036l0.044,0.038l0.041,0.039l0.04,0.042l0.038,0.044l0.035,0.045l0.034,0.047l0.031,0.049l0.029,0.05l0.027,0.052l0.024,0.053l0.021,0.054l0.019,0.056l0.016,0.057l0.014,0.058l0.005,0.029l0.005,0.03l0.004,0.03l0.004,0.03l0.003,0.03l0.001,0.031l0.002,0.031l0,0.031l0,8.4l0,0.031l-0.002,0.03l-0.001,0.031l-0.003,0.03l-0.004,0.03l-0.004,0.03l-0.005,0.03l-0.005,0.029l-0.014,0.058l-0.016,0.057l-0.019,0.056l-0.021,0.055l-0.024,0.053l-0.027,0.052l-0.029,0.05l-0.031,0.048l-0.034,0.047l-0.035,0.046l-0.038,0.043l-0.04,0.042l-0.041,0.04l-0.044,0.038l-0.045,0.035l-0.047,0.034l-0.049,0.031l-0.05,0.029l-0.052,0.026l-0.053,0.024l-0.055,0.022l-0.055,0.019l-0.057,0.016l-0.058,0.013l-0.03,0.006l-0.029,0.005l-0.03,0.004l-0.03,0.004l-0.031,0.002l-0.03,0.002l-0.031,0.001l-0.031,0.001l-57.6,0l-0.031,-0.001l-0.031,-0.001l-0.03,-0.002l-0.031,-0.002l-0.03,-0.004l-0.03,-0.004l-0.029,-0.005l-0.03,-0.006l-0.058,-0.013l-0.057,-0.016l-0.055,-0.019l-0.055,-0.022l-0.053,-0.024l-0.052,-0.026l-0.05,-0.029l-0.049,-0.031l-0.047,-0.034l-0.045,-0.035l-0.044,-0.038l-0.041,-0.04l-0.04,-0.042l-0.038,-0.043l-0.035,-0.046l-0.034,-0.047l-0.031,-0.048l-0.029,-0.05l-0.027,-0.052l-0.024,-0.053l-0.021,-0.055l-0.019,-0.056l-0.016,-0.057l-0.014,-0.058l-0.005,-0.029l-0.005,-0.03l-0.004,-0.03l-0.004,-0.03l-0.002,-0.03l-0.002,-0.031l-0.002,-0.03l0,-0.031l0,-8.4l0,-0.031l0.002,-0.031l0.002,-0.031l0.002,-0.03l0.004,-0.03l0.004,-0.03l0.005,-0.03l0.005,-0.029l0.014,-0.058l0.016,-0.057l0.019,-0.056l0.021,-0.054l0.024,-0.053l0.027,-0.052l0.029,-0.05l0.031,-0.049l0.034,-0.047l0.035,-0.045l0.038,-0.044l0.04,-0.042l0.041,-0.039l0.044,-0.038l0.045,-0.036l0.047,-0.033l0.049,-0.031l0.05,-0.029l0.052,-0.027l0.053,-0.024l0.055,-0.021l0.055,-0.019l0.057,-0.016l0.058,-0.014l0.03,-0.006l0.029,-0.004l0.03,-0.005l0.03,-0.003l0.031,-0.003l0.03,-0.002l0.031,-0.001l0.031,0l57.6,0l0.031,0Zm-57.625,1l-0.012,0l-0.005,0l-0.005,0l-0.006,0.001l-0.004,0l-0.005,0.001l-0.005,0.001l-0.014,0.003l-0.009,0.003l-0.009,0.003l-0.009,0.003l-0.009,0.004l-0.008,0.005l-0.009,0.004l-0.007,0.005l-0.008,0.006l-0.008,0.006l-0.009,0.008l-0.008,0.007l-0.004,0.005l-0.006,0.007l-0.007,0.008l-0.007,0.01l-0.005,0.009l-0.005,0.007l-0.004,0.008l-0.003,0.007l-0.003,0.009l-0.003,0.009l-0.003,0.011l-0.004,0.014l-0.001,0.009l-0.001,0.004l0,0.004l0,0.006l-0.001,0.006l0,0.013l0,8.388l0,0.012l0.001,0.007l0,0.005l0,0.005l0.001,0.004l0.001,0.008l0.004,0.015l0.003,0.011l0.003,0.009l0.003,0.008l0.003,0.007l0.004,0.008l0.005,0.008l0.005,0.008l0.007,0.01l0.007,0.008l0.006,0.008l0.004,0.004l0.008,0.008l0.009,0.007l0.008,0.007l0.008,0.005l0.007,0.005l0.009,0.005l0.008,0.004l0.009,0.004l0.009,0.004l0.009,0.003l0.009,0.002l0.014,0.003l0.005,0.001l0.005,0.001l0.004,0.001l0.006,0l0.005,0l0.005,0.001l0.012,0l57.588,0l0.012,0l0.005,-0.001l0.006,0l0.004,0l0.006,-0.001l0.005,-0.001l0.003,0l0.016,-0.004l0.009,-0.003l0.009,-0.002l0.008,-0.004l0.008,-0.003l0.008,-0.004l0.01,-0.006l0.009,-0.006l0.008,-0.006l0.006,-0.005l0.007,-0.006l0.008,-0.007l0.008,-0.008l0.006,-0.008l0.005,-0.006l0.005,-0.007l0.006,-0.009l0.005,-0.01l0.005,-0.008l0.003,-0.007l0.004,-0.011l0.003,-0.009l0.003,-0.008l0.003,-0.015l0,-0.002l0.001,-0.005l0.001,-0.004l0.001,-0.012l0,-0.006l0,0l0,-0.012l0,-8.388l0,-0.013l0,0l0,-0.006l-0.001,-0.011l-0.001,-0.005l-0.001,-0.004l0,-0.003l-0.003,-0.014l-0.003,-0.008l-0.003,-0.01l-0.004,-0.011l-0.003,-0.007l-0.005,-0.008l-0.005,-0.01l-0.006,-0.008l-0.005,-0.008l-0.005,-0.006l-0.006,-0.007l-0.008,-0.009l-0.008,-0.007l-0.007,-0.006l-0.006,-0.005l-0.008,-0.006l-0.009,-0.006l-0.01,-0.005l-0.008,-0.004l-0.008,-0.004l-0.008,-0.003l-0.009,-0.003l-0.009,-0.003l-0.016,-0.003l-0.003,-0.001l-0.005,-0.001l-0.006,0l-0.004,-0.001l-0.006,0l-0.006,0l-0.011,0l-57.588,0Z" style="fill:#0081d5;"/>
                </g>
            </g>
            <text x="213.691px" y="67.482px" style="font-family:'ArialNarrow', 'Arial', sans-serif;font-stretch:condensed;font-size:9px;fill:#fff;">Формат значения в легенде</text>
        </g>
        <g id="enableAnimation">
            <g id="Checkbox">
                <g id="Base4" serif:id="Base">
                    <path d="M20.706,26.801c0,-1.304 -1.058,-2.362 -2.362,-2.362l-7.087,0c-1.303,0 -2.362,1.058 -2.362,2.362l0,7.087c0,1.304 1.059,2.362 2.362,2.362l7.087,0c1.304,0 2.362,-1.058 2.362,-2.362l0,-7.087Z" style="fill:#eceff4;"/>
                    <path d="M18.405,24.44l0.06,0.002l0.06,0.004l0.06,0.005l0.06,0.007l0.058,0.008l0.059,0.01l0.058,0.011l0.057,0.013l0.057,0.013l0.056,0.016l0.056,0.016l0.055,0.018l0.055,0.019l0.054,0.021l0.053,0.022l0.053,0.023l0.052,0.024l0.051,0.026l0.05,0.026l0.05,0.028l0.049,0.029l0.049,0.03l0.047,0.032l0.047,0.032l0.046,0.034l0.045,0.034l0.044,0.036l0.043,0.036l0.043,0.038l0.041,0.039l0.041,0.039l0.039,0.041l0.039,0.041l0.038,0.043l0.036,0.043l0.036,0.044l0.035,0.045l0.033,0.046l0.032,0.047l0.032,0.047l0.03,0.049l0.029,0.049l0.028,0.05l0.026,0.05l0.026,0.051l0.024,0.052l0.023,0.053l0.022,0.053l0.021,0.054l0.019,0.055l0.018,0.055l0.016,0.056l0.016,0.056l0.014,0.057l0.012,0.057l0.011,0.058l0.01,0.059l0.008,0.058l0.007,0.06l0.005,0.06l0.004,0.06l0.002,0.06l0.001,0.061l0,7.087l-0.001,0.061l-0.002,0.06l-0.004,0.06l-0.005,0.06l-0.007,0.059l-0.008,0.059l-0.01,0.059l-0.011,0.058l-0.012,0.057l-0.014,0.057l-0.016,0.056l-0.016,0.056l-0.018,0.055l-0.019,0.055l-0.021,0.054l-0.022,0.053l-0.023,0.053l-0.024,0.052l-0.026,0.051l-0.026,0.05l-0.028,0.05l-0.029,0.049l-0.03,0.049l-0.032,0.047l-0.032,0.047l-0.033,0.046l-0.035,0.045l-0.036,0.044l-0.036,0.043l-0.038,0.043l-0.039,0.041l-0.039,0.041l-0.041,0.039l-0.041,0.039l-0.043,0.038l-0.043,0.036l-0.044,0.036l-0.045,0.034l-0.046,0.034l-0.047,0.032l-0.047,0.032l-0.049,0.03l-0.049,0.029l-0.05,0.028l-0.05,0.026l-0.051,0.026l-0.052,0.024l-0.053,0.023l-0.053,0.022l-0.054,0.021l-0.055,0.019l-0.055,0.018l-0.056,0.016l-0.056,0.016l-0.057,0.013l-0.057,0.013l-0.058,0.011l-0.059,0.01l-0.058,0.008l-0.06,0.007l-0.06,0.005l-0.06,0.004l-0.06,0.002l-0.061,0.001l-7.087,0l-0.061,-0.001l-0.06,-0.002l-0.06,-0.004l-0.06,-0.005l-0.059,-0.007l-0.059,-0.008l-0.059,-0.01l-0.058,-0.011l-0.057,-0.013l-0.057,-0.013l-0.056,-0.016l-0.056,-0.016l-0.055,-0.018l-0.055,-0.019l-0.054,-0.021l-0.053,-0.022l-0.053,-0.023l-0.051,-0.024l-0.052,-0.026l-0.05,-0.026l-0.05,-0.028l-0.049,-0.029l-0.049,-0.03l-0.047,-0.032l-0.047,-0.032l-0.046,-0.034l-0.045,-0.034l-0.044,-0.036l-0.043,-0.036l-0.043,-0.038l-0.041,-0.039l-0.041,-0.039l-0.039,-0.041l-0.039,-0.041l-0.038,-0.043l-0.036,-0.043l-0.036,-0.044l-0.034,-0.045l-0.034,-0.046l-0.032,-0.047l-0.032,-0.047l-0.03,-0.049l-0.029,-0.049l-0.028,-0.05l-0.026,-0.05l-0.026,-0.051l-0.024,-0.052l-0.023,-0.053l-0.022,-0.053l-0.021,-0.054l-0.019,-0.055l-0.018,-0.055l-0.016,-0.056l-0.016,-0.056l-0.013,-0.057l-0.013,-0.057l-0.011,-0.058l-0.01,-0.059l-0.008,-0.059l-0.007,-0.059l-0.005,-0.06l-0.004,-0.06l-0.002,-0.06l-0.001,-0.061l0,-7.087l0.001,-0.061l0.002,-0.06l0.004,-0.06l0.005,-0.06l0.007,-0.06l0.008,-0.058l0.01,-0.059l0.011,-0.058l0.013,-0.057l0.013,-0.057l0.016,-0.056l0.016,-0.056l0.018,-0.055l0.019,-0.055l0.021,-0.054l0.022,-0.053l0.023,-0.053l0.024,-0.052l0.026,-0.051l0.026,-0.05l0.028,-0.05l0.029,-0.049l0.03,-0.049l0.032,-0.047l0.032,-0.047l0.034,-0.046l0.034,-0.045l0.036,-0.044l0.036,-0.043l0.038,-0.043l0.039,-0.041l0.039,-0.041l0.041,-0.039l0.041,-0.039l0.043,-0.038l0.043,-0.036l0.044,-0.036l0.045,-0.034l0.046,-0.034l0.047,-0.032l0.047,-0.032l0.049,-0.03l0.049,-0.029l0.05,-0.028l0.05,-0.026l0.052,-0.026l0.051,-0.024l0.053,-0.023l0.053,-0.022l0.054,-0.021l0.055,-0.019l0.055,-0.018l0.056,-0.016l0.056,-0.016l0.057,-0.013l0.057,-0.013l0.058,-0.011l0.059,-0.01l0.059,-0.008l0.059,-0.007l0.06,-0.005l0.06,-0.004l0.06,-0.002l0.061,-0.001l7.087,0l0.061,0.001Zm-7.141,0.999l-0.042,0.001l-0.036,0.001l-0.034,0.002l-0.035,0.003l-0.034,0.004l-0.034,0.005l-0.034,0.005l-0.033,0.007l-0.032,0.007l-0.033,0.008l-0.033,0.009l-0.032,0.009l-0.032,0.011l-0.03,0.01l-0.031,0.012l-0.031,0.013l-0.03,0.013l-0.03,0.014l-0.03,0.015l-0.029,0.015l-0.028,0.016l-0.029,0.017l-0.028,0.017l-0.027,0.018l-0.026,0.018l-0.028,0.02l-0.027,0.021l-0.024,0.02l-0.025,0.021l-0.026,0.023l-0.023,0.022l-0.023,0.022l-0.024,0.024l-0.022,0.023l-0.021,0.025l-0.022,0.026l-0.021,0.026l-0.019,0.025l-0.02,0.027l-0.019,0.027l-0.018,0.027l-0.018,0.029l-0.016,0.028l-0.015,0.027l-0.017,0.031l-0.014,0.03l-0.014,0.028l-0.013,0.031l-0.012,0.03l-0.013,0.032l-0.011,0.031l-0.009,0.029l-0.01,0.035l-0.009,0.032l-0.008,0.031l-0.007,0.034l-0.007,0.035l-0.005,0.033l-0.005,0.033l-0.004,0.034l-0.003,0.035l-0.002,0.035l-0.002,0.034l0,0.041l0,7.077l0,0.041l0.002,0.034l0.002,0.035l0.003,0.035l0.004,0.034l0.005,0.033l0.005,0.033l0.007,0.035l0.007,0.034l0.008,0.031l0.009,0.032l0.01,0.035l0.009,0.029l0.011,0.031l0.013,0.032l0.012,0.03l0.013,0.031l0.014,0.028l0.014,0.03l0.017,0.031l0.015,0.027l0.016,0.028l0.018,0.029l0.018,0.027l0.019,0.027l0.02,0.027l0.019,0.025l0.021,0.026l0.022,0.026l0.021,0.025l0.022,0.023l0.024,0.024l0.023,0.022l0.023,0.022l0.026,0.023l0.025,0.021l0.024,0.02l0.027,0.021l0.028,0.02l0.026,0.018l0.027,0.018l0.028,0.017l0.029,0.017l0.028,0.016l0.029,0.015l0.03,0.015l0.03,0.014l0.03,0.013l0.031,0.013l0.031,0.012l0.03,0.01l0.032,0.011l0.032,0.009l0.033,0.009l0.033,0.008l0.032,0.007l0.033,0.007l0.034,0.005l0.034,0.005l0.034,0.004l0.035,0.003l0.034,0.002l0.036,0.001l0.042,0.001l7.074,0l0.041,-0.001l0.036,-0.001l0.035,-0.002l0.034,-0.003l0.034,-0.004l0.034,-0.005l0.034,-0.005l0.033,-0.007l0.033,-0.007l0.032,-0.008l0.033,-0.009l0.032,-0.009l0.031,-0.01l0.031,-0.011l0.032,-0.012l0.03,-0.013l0.03,-0.013l0.031,-0.014l0.029,-0.015l0.029,-0.015l0.029,-0.016l0.027,-0.016l0.028,-0.018l0.029,-0.019l0.027,-0.018l0.026,-0.019l0.026,-0.02l0.025,-0.021l0.026,-0.022l0.024,-0.021l0.024,-0.023l0.024,-0.023l0.023,-0.023l0.022,-0.023l0.021,-0.025l0.023,-0.026l0.02,-0.026l0.019,-0.025l0.02,-0.027l0.019,-0.027l0.018,-0.027l0.017,-0.027l0.017,-0.03l0.016,-0.029l0.015,-0.027l0.015,-0.032l0.015,-0.03l0.013,-0.029l0.012,-0.03l0.011,-0.03l0.012,-0.033l0.01,-0.031l0.009,-0.033l0.009,-0.032l0.008,-0.031l0.007,-0.034l0.007,-0.035l0.005,-0.033l0.005,-0.033l0.004,-0.034l0.003,-0.032l0.002,-0.036l0.001,-0.038l0.001,-0.041l0,-7.073l-0.001,-0.041l-0.001,-0.038l-0.002,-0.036l-0.003,-0.032l-0.004,-0.034l-0.005,-0.033l-0.005,-0.033l-0.007,-0.035l-0.007,-0.034l-0.008,-0.031l-0.009,-0.032l-0.009,-0.033l-0.01,-0.031l-0.012,-0.033l-0.011,-0.03l-0.012,-0.03l-0.013,-0.029l-0.015,-0.03l-0.015,-0.032l-0.015,-0.027l-0.016,-0.029l-0.017,-0.03l-0.017,-0.027l-0.018,-0.027l-0.019,-0.027l-0.02,-0.027l-0.019,-0.025l-0.02,-0.026l-0.023,-0.026l-0.021,-0.025l-0.022,-0.023l-0.023,-0.023l-0.024,-0.023l-0.024,-0.023l-0.024,-0.021l-0.026,-0.022l-0.025,-0.021l-0.026,-0.02l-0.026,-0.019l-0.027,-0.018l-0.029,-0.019l-0.028,-0.018l-0.027,-0.016l-0.029,-0.016l-0.029,-0.015l-0.029,-0.015l-0.031,-0.014l-0.03,-0.013l-0.03,-0.013l-0.032,-0.012l-0.031,-0.011l-0.031,-0.01l-0.032,-0.009l-0.033,-0.009l-0.032,-0.008l-0.033,-0.007l-0.033,-0.007l-0.034,-0.005l-0.034,-0.005l-0.034,-0.004l-0.034,-0.003l-0.035,-0.002l-0.036,-0.001l-0.041,-0.001l-7.074,0Z" style="fill:#0081d5;"/>
                </g>
                <path id="Checked-Icon" serif:id="Checked Icon" d="M17.505,27.89l-3.834,3.872l-1.58,-1.598c-0.191,-0.193 -0.501,-0.193 -0.691,0c-0.191,0.192 -0.191,0.505 0,0.698l1.915,1.937c0.098,0.099 0.227,0.147 0.356,0.144c0.128,0.003 0.257,-0.045 0.355,-0.144l4.171,-4.211c0.19,-0.193 0.19,-0.505 0,-0.698c-0.191,-0.193 -0.501,-0.193 -0.692,0Z" style="fill:#0081d5;"/>
            </g>
            <text x="29.895px" y="33.513px" style="font-family:'ArialNarrow', 'Arial', sans-serif;font-stretch:condensed;font-size:9px;fill:#fff;">Разрешить анимацию</text>
        </g>
        <g>
            <g id="FrameRectOptions">
                <g id="colorFrameFill">
                    <g id="colorSelButton">
                        <path id="noColor" d="M34.24,162.967c0,-1.192 -0.968,-2.16 -2.16,-2.16l-21.025,0c-1.192,0 -2.16,0.968 -2.16,2.16l0,6.48c0,1.192 0.968,2.16 2.16,2.16l21.025,0c1.192,0 2.16,-0.968 2.16,-2.16l0,-6.48Z" style="fill:#fefefe;"/>
                        <clipPath id="_clip1">
                            <path d="M34.24,162.967c0,-1.192 -0.968,-2.16 -2.16,-2.16l-21.025,0c-1.192,0 -2.16,0.968 -2.16,2.16l0,6.48c0,1.192 0.968,2.16 2.16,2.16l21.025,0c1.192,0 2.16,-0.968 2.16,-2.16l0,-6.48Z"/>
                        </clipPath>
                        <g clip-path="url(#_clip1)">
                            <path d="M14.801,172.607l13.894,-12.8l-13.894,12.8Z" style="fill:none;stroke:#f00;stroke-width:2px;"/>
                        </g>
                        <path id="selectedColor" d="M34.24,162.967c0,-1.192 -0.968,-2.16 -2.16,-2.16l-21.025,0c-1.192,0 -2.16,0.968 -2.16,2.16l0,6.48c0,1.192 0.968,2.16 2.16,2.16l21.025,0c1.192,0 2.16,-0.968 2.16,-2.16l0,-6.48Z" style="fill:none;"/>
                    </g>
                    <text x="37.903px" y="169.376px" style="font-family:'ArialNarrow', 'Arial', sans-serif;font-stretch:condensed;font-size:9px;fill:#fff;">Цвет фона</text>
                </g>
                <g id="colorFrameBorder">
                    <g id="colorSelButton1" serif:id="colorSelButton">
                        <path id="noColor1" serif:id="noColor" d="M34.24,177.967c0,-1.192 -0.968,-2.16 -2.16,-2.16l-21.025,0c-1.192,0 -2.16,0.968 -2.16,2.16l0,6.48c0,1.192 0.968,2.16 2.16,2.16l21.025,0c1.192,0 2.16,-0.968 2.16,-2.16l0,-6.48Z" style="fill:#fefefe;"/>
                        <clipPath id="_clip2">
                            <path d="M34.24,177.967c0,-1.192 -0.968,-2.16 -2.16,-2.16l-21.025,0c-1.192,0 -2.16,0.968 -2.16,2.16l0,6.48c0,1.192 0.968,2.16 2.16,2.16l21.025,0c1.192,0 2.16,-0.968 2.16,-2.16l0,-6.48Z"/>
                        </clipPath>
                        <g clip-path="url(#_clip2)">
                            <path d="M14.801,187.607l13.894,-12.8l-13.894,12.8Z" style="fill:none;stroke:#f00;stroke-width:2px;"/>
                        </g>
                        <path id="selectedColor1" serif:id="selectedColor" d="M34.24,177.967c0,-1.192 -0.968,-2.16 -2.16,-2.16l-21.025,0c-1.192,0 -2.16,0.968 -2.16,2.16l0,6.48c0,1.192 0.968,2.16 2.16,2.16l21.025,0c1.192,0 2.16,-0.968 2.16,-2.16l0,-6.48Z" style="fill:none;"/>
                    </g>
                    <text x="37.903px" y="184.376px" style="font-family:'ArialNarrow', 'Arial', sans-serif;font-stretch:condensed;font-size:9px;fill:#fff;">Цвет обводки</text>
                </g>
                <g id="valueOption">
                    <g id="valueSelector">
                        <path id="valueMax" d="M180.659,181.207l100,0" style="fill:none;stroke:#fff;stroke-width:2px;stroke-linecap:round;"/>
                        <path id="valueSel" d="M180.659,181.207l50,0" style="fill:none;stroke:#0081d5;stroke-width:6px;stroke-linecap:round;"/>
                        <circle id="valueButton" cx="231.26" cy="181.207" r="5.371" style="fill:#8a8686;stroke:#747474;stroke-width:0.49px;stroke-linecap:round;"/>
                    </g>
                    <text x="124.942px" y="183.534px" style="font-family:'ArialNarrow', 'Arial', sans-serif;font-stretch:condensed;font-size:9px;fill:#fff;">Толщина :</text>
                </g>
                <g id="valueOption1" serif:id="valueOption">
                    <g id="valueSelector1" serif:id="valueSelector">
                        <path id="valueMax1" serif:id="valueMax" d="M180.659,166.207l100,0" style="fill:none;stroke:#fff;stroke-width:2px;stroke-linecap:round;"/>
                        <path id="valueSel1" serif:id="valueSel" d="M180.659,166.207l50,0" style="fill:none;stroke:#0081d5;stroke-width:6px;stroke-linecap:round;"/>
                        <circle id="valueButton1" serif:id="valueButton" cx="231.26" cy="166.207" r="5.371" style="fill:#8a8686;stroke:#747474;stroke-width:0.49px;stroke-linecap:round;"/>
                    </g>
                    <text x="124.533px" y="168.534px" style="font-family:'ArialNarrow', 'Arial', sans-serif;font-stretch:condensed;font-size:9px;fill:#fff;">Прозрачность:</text>
                </g>
            </g>
            <g>
                <text x="8.302px" y="154.534px" style="font-family:'ArialMT', 'Arial', sans-serif;font-size:10px;fill:#fff;">Параме<tspan x="44.278px 48.858px " y="154.534px 154.534px ">тр</tspan>ы окна по<tspan x="98.941px 104.776px 109.776px 114.371px 119.82px 124.405px " y="154.534px 154.534px 154.534px 154.534px 154.534px 154.534px ">дсказк</tspan>и</text>
                <path d="M8.895,156.522l128.853,0" style="fill:none;stroke:#fff;stroke-width:0.49px;stroke-linecap:round;"/>
            </g>
        </g>
        <g>
            <g>
                <text x="8.302px" y="95.474px" style="font-family:'ArialMT', 'Arial', sans-serif;font-size:10px;fill:#fff;">Параме<tspan x="44.278px 48.858px " y="95.474px 95.474px ">тр</tspan>ы строк лег<tspan x="107.066px 112.628px " y="95.474px 95.474px ">ен</tspan>ды</text>
                <path d="M8.895,97.461l124.853,0" style="fill:none;stroke:#fff;stroke-width:0.49px;stroke-linecap:round;"/>
            </g>
            <g>
                <g id="colorFrameFill1" serif:id="colorFrameFill">
                    <g id="colorSelButton2" serif:id="colorSelButton">
                        <path id="noColor2" serif:id="noColor" d="M34.795,107.466c0,-1.192 -0.968,-2.16 -2.16,-2.16l-21.025,0c-1.192,0 -2.16,0.968 -2.16,2.16l0,6.48c0,1.192 0.968,2.16 2.16,2.16l21.025,0c1.192,0 2.16,-0.968 2.16,-2.16l0,-6.48Z" style="fill:#fefefe;"/>
                        <clipPath id="_clip3">
                            <path d="M34.795,107.466c0,-1.192 -0.968,-2.16 -2.16,-2.16l-21.025,0c-1.192,0 -2.16,0.968 -2.16,2.16l0,6.48c0,1.192 0.968,2.16 2.16,2.16l21.025,0c1.192,0 2.16,-0.968 2.16,-2.16l0,-6.48Z"/>
                        </clipPath>
                        <g clip-path="url(#_clip3)">
                            <path d="M15.356,117.106l13.894,-12.8l-13.894,12.8Z" style="fill:none;stroke:#f00;stroke-width:2px;"/>
                        </g>
                        <path id="selectedColor2" serif:id="selectedColor" d="M34.795,107.466c0,-1.192 -0.968,-2.16 -2.16,-2.16l-21.025,0c-1.192,0 -2.16,0.968 -2.16,2.16l0,6.48c0,1.192 0.968,2.16 2.16,2.16l21.025,0c1.192,0 2.16,-0.968 2.16,-2.16l0,-6.48Z" style="fill:none;"/>
                    </g>
                    <text x="38.458px" y="113.874px" style="font-family:'ArialNarrow', 'Arial', sans-serif;font-stretch:condensed;font-size:9px;fill:#fff;">Цвет фона легенды</text>
                </g>
                <g id="colorFrameBorder1" serif:id="colorFrameBorder">
                    <g id="colorSelButton3" serif:id="colorSelButton">
                        <path id="noColor3" serif:id="noColor" d="M34.795,122.466c0,-1.192 -0.968,-2.16 -2.16,-2.16l-21.025,0c-1.192,0 -2.16,0.968 -2.16,2.16l0,6.48c0,1.192 0.968,2.16 2.16,2.16l21.025,0c1.192,0 2.16,-0.968 2.16,-2.16l0,-6.48Z" style="fill:#fefefe;"/>
                        <clipPath id="_clip4">
                            <path d="M34.795,122.466c0,-1.192 -0.968,-2.16 -2.16,-2.16l-21.025,0c-1.192,0 -2.16,0.968 -2.16,2.16l0,6.48c0,1.192 0.968,2.16 2.16,2.16l21.025,0c1.192,0 2.16,-0.968 2.16,-2.16l0,-6.48Z"/>
                        </clipPath>
                        <g clip-path="url(#_clip4)">
                            <path d="M15.356,132.106l13.894,-12.8l-13.894,12.8Z" style="fill:none;stroke:#f00;stroke-width:2px;"/>
                        </g>
                        <path id="selectedColor3" serif:id="selectedColor" d="M34.795,122.466c0,-1.192 -0.968,-2.16 -2.16,-2.16l-21.025,0c-1.192,0 -2.16,0.968 -2.16,2.16l0,6.48c0,1.192 0.968,2.16 2.16,2.16l21.025,0c1.192,0 2.16,-0.968 2.16,-2.16l0,-6.48Z" style="fill:none;"/>
                    </g>
                    <text x="38.458px" y="128.874px" style="font-family:'ArialNarrow', 'Arial', sans-serif;font-stretch:condensed;font-size:9px;fill:#fff;">Цвет обводки легенды</text>
                </g>
            </g>
        </g>
        <g id="enableShadow">
            <g id="Checkbox1" serif:id="Checkbox">
                <g id="Base5" serif:id="Base">
                    <path d="M20.706,9.854c0,-1.304 -1.058,-2.362 -2.362,-2.362l-7.087,0c-1.303,0 -2.362,1.058 -2.362,2.362l0,7.087c0,1.303 1.059,2.362 2.362,2.362l7.087,0c1.304,0 2.362,-1.059 2.362,-2.362l0,-7.087Z" style="fill:#eceff4;"/>
                    <path d="M18.405,7.492l0.06,0.003l0.06,0.004l0.06,0.005l0.06,0.007l0.058,0.008l0.059,0.01l0.058,0.011l0.057,0.012l0.057,0.014l0.056,0.015l0.056,0.017l0.055,0.018l0.055,0.019l0.054,0.021l0.053,0.021l0.053,0.024l0.052,0.024l0.051,0.025l0.05,0.027l0.05,0.028l0.049,0.029l0.049,0.03l0.047,0.031l0.047,0.033l0.046,0.033l0.045,0.035l0.044,0.035l0.043,0.037l0.043,0.038l0.041,0.038l0.041,0.04l0.039,0.04l0.039,0.042l0.038,0.042l0.036,0.044l0.036,0.044l0.035,0.045l0.033,0.046l0.032,0.047l0.032,0.047l0.03,0.048l0.029,0.049l0.028,0.05l0.026,0.051l0.026,0.051l0.024,0.052l0.023,0.053l0.022,0.053l0.021,0.054l0.019,0.055l0.018,0.055l0.016,0.056l0.016,0.056l0.014,0.057l0.012,0.057l0.011,0.058l0.01,0.058l0.008,0.059l0.007,0.06l0.005,0.059l0.004,0.06l0.002,0.061l0.001,0.061l0,7.087l-0.001,0.06l-0.002,0.061l-0.004,0.06l-0.005,0.06l-0.007,0.059l-0.008,0.059l-0.01,0.058l-0.011,0.058l-0.012,0.058l-0.014,0.057l-0.016,0.056l-0.016,0.056l-0.018,0.055l-0.019,0.054l-0.021,0.054l-0.022,0.054l-0.023,0.052l-0.024,0.052l-0.026,0.052l-0.026,0.05l-0.028,0.05l-0.029,0.049l-0.03,0.048l-0.032,0.048l-0.032,0.047l-0.033,0.045l-0.035,0.046l-0.036,0.044l-0.036,0.043l-0.038,0.042l-0.039,0.042l-0.039,0.041l-0.041,0.039l-0.041,0.039l-0.043,0.037l-0.043,0.037l-0.044,0.036l-0.045,0.034l-0.046,0.034l-0.047,0.032l-0.047,0.031l-0.049,0.031l-0.049,0.029l-0.05,0.027l-0.05,0.027l-0.051,0.026l-0.052,0.024l-0.053,0.023l-0.053,0.022l-0.054,0.02l-0.055,0.02l-0.055,0.017l-0.056,0.017l-0.056,0.015l-0.057,0.014l-0.057,0.013l-0.058,0.011l-0.059,0.009l-0.058,0.009l-0.06,0.007l-0.06,0.005l-0.06,0.004l-0.06,0.002l-0.061,0.001l-7.087,0l-0.061,-0.001l-0.06,-0.002l-0.06,-0.004l-0.06,-0.005l-0.059,-0.007l-0.059,-0.009l-0.059,-0.009l-0.058,-0.011l-0.057,-0.013l-0.057,-0.014l-0.056,-0.015l-0.056,-0.017l-0.055,-0.017l-0.055,-0.02l-0.054,-0.02l-0.053,-0.022l-0.053,-0.023l-0.051,-0.024l-0.052,-0.026l-0.05,-0.027l-0.05,-0.027l-0.049,-0.029l-0.049,-0.031l-0.047,-0.031l-0.047,-0.032l-0.046,-0.034l-0.045,-0.034l-0.044,-0.036l-0.043,-0.037l-0.043,-0.037l-0.041,-0.039l-0.041,-0.039l-0.039,-0.041l-0.039,-0.042l-0.038,-0.042l-0.036,-0.043l-0.036,-0.044l-0.034,-0.046l-0.034,-0.045l-0.032,-0.047l-0.032,-0.048l-0.03,-0.048l-0.029,-0.049l-0.028,-0.05l-0.026,-0.05l-0.026,-0.052l-0.024,-0.052l-0.023,-0.052l-0.022,-0.054l-0.021,-0.054l-0.019,-0.054l-0.018,-0.055l-0.016,-0.056l-0.016,-0.056l-0.013,-0.057l-0.013,-0.058l-0.011,-0.058l-0.01,-0.058l-0.008,-0.059l-0.007,-0.059l-0.005,-0.06l-0.004,-0.06l-0.002,-0.061l-0.001,-0.06l0,-7.087l0.001,-0.061l0.002,-0.061l0.004,-0.06l0.005,-0.059l0.007,-0.06l0.008,-0.059l0.01,-0.058l0.011,-0.058l0.013,-0.057l0.013,-0.057l0.016,-0.056l0.016,-0.056l0.018,-0.055l0.019,-0.055l0.021,-0.054l0.022,-0.053l0.023,-0.053l0.024,-0.052l0.026,-0.051l0.026,-0.051l0.028,-0.05l0.029,-0.049l0.03,-0.048l0.032,-0.047l0.032,-0.047l0.034,-0.046l0.034,-0.045l0.036,-0.044l0.036,-0.044l0.038,-0.042l0.039,-0.042l0.039,-0.04l0.041,-0.04l0.041,-0.038l0.043,-0.038l0.043,-0.037l0.044,-0.035l0.045,-0.035l0.046,-0.033l0.047,-0.033l0.047,-0.031l0.049,-0.03l0.049,-0.029l0.05,-0.028l0.05,-0.027l0.052,-0.025l0.051,-0.024l0.053,-0.024l0.053,-0.021l0.054,-0.021l0.055,-0.019l0.055,-0.018l0.056,-0.017l0.056,-0.015l0.057,-0.014l0.057,-0.012l0.058,-0.011l0.059,-0.01l0.059,-0.008l0.059,-0.007l0.06,-0.005l0.06,-0.004l0.06,-0.003l0.061,0l7.087,0l0.061,0Zm-7.141,1l-0.042,0l-0.036,0.002l-0.034,0.002l-0.035,0.003l-0.034,0.004l-0.034,0.005l-0.034,0.005l-0.033,0.006l-0.032,0.008l-0.033,0.008l-0.033,0.008l-0.032,0.01l-0.032,0.01l-0.03,0.011l-0.031,0.012l-0.031,0.013l-0.03,0.013l-0.03,0.014l-0.03,0.014l-0.029,0.016l-0.028,0.016l-0.029,0.017l-0.028,0.017l-0.027,0.018l-0.026,0.018l-0.028,0.02l-0.027,0.021l-0.024,0.019l-0.025,0.022l-0.026,0.023l-0.023,0.021l-0.023,0.022l-0.024,0.025l-0.022,0.023l-0.021,0.024l-0.022,0.027l-0.021,0.026l-0.019,0.024l-0.02,0.027l-0.019,0.028l-0.018,0.027l-0.018,0.029l-0.016,0.028l-0.015,0.026l-0.017,0.031l-0.014,0.03l-0.014,0.029l-0.013,0.031l-0.012,0.029l-0.013,0.033l-0.011,0.031l-0.009,0.029l-0.01,0.034l-0.009,0.033l-0.008,0.031l-0.007,0.034l-0.007,0.034l-0.005,0.033l-0.005,0.034l-0.004,0.034l-0.003,0.034l-0.002,0.036l-0.002,0.033l0,0.042l0,7.077l0,0.041l0.002,0.034l0.002,0.035l0.003,0.035l0.004,0.034l0.005,0.033l0.005,0.033l0.007,0.035l0.007,0.034l0.008,0.03l0.009,0.033l0.01,0.035l0.009,0.029l0.011,0.031l0.013,0.032l0.012,0.03l0.013,0.031l0.014,0.028l0.014,0.03l0.017,0.031l0.015,0.027l0.016,0.028l0.018,0.029l0.018,0.026l0.019,0.028l0.02,0.027l0.019,0.025l0.021,0.026l0.022,0.026l0.021,0.024l0.022,0.024l0.024,0.024l0.023,0.022l0.023,0.022l0.026,0.023l0.025,0.021l0.024,0.02l0.027,0.02l0.028,0.02l0.026,0.019l0.027,0.017l0.028,0.018l0.029,0.017l0.028,0.016l0.029,0.015l0.03,0.015l0.03,0.014l0.03,0.013l0.031,0.013l0.031,0.011l0.03,0.011l0.032,0.011l0.032,0.009l0.033,0.009l0.033,0.008l0.032,0.007l0.033,0.006l0.034,0.006l0.034,0.005l0.034,0.004l0.035,0.003l0.034,0.002l0.036,0.001l0.042,0.001l7.074,0l0.041,-0.001l0.036,-0.001l0.034,-0.002l0.035,-0.003l0.034,-0.004l0.034,-0.005l0.034,-0.006l0.033,-0.006l0.033,-0.007l0.032,-0.008l0.033,-0.009l0.032,-0.009l0.031,-0.011l0.031,-0.011l0.032,-0.012l0.03,-0.012l0.03,-0.013l0.031,-0.014l0.029,-0.015l0.029,-0.015l0.029,-0.016l0.027,-0.016l0.028,-0.018l0.029,-0.019l0.027,-0.019l0.026,-0.019l0.026,-0.019l0.025,-0.021l0.026,-0.022l0.024,-0.021l0.024,-0.023l0.024,-0.023l0.023,-0.023l0.022,-0.024l0.021,-0.024l0.023,-0.026l0.02,-0.026l0.019,-0.025l0.02,-0.027l0.019,-0.028l0.018,-0.026l0.017,-0.027l0.017,-0.03l0.016,-0.029l0.015,-0.027l0.015,-0.032l0.015,-0.03l0.013,-0.029l0.012,-0.03l0.011,-0.03l0.012,-0.033l0.01,-0.032l0.009,-0.032l0.009,-0.033l0.008,-0.03l0.007,-0.034l0.007,-0.035l0.005,-0.033l0.005,-0.033l0.004,-0.034l0.003,-0.033l0.002,-0.035l0.001,-0.038l0.001,-0.042l0,-7.072l-0.001,-0.041l-0.001,-0.039l-0.002,-0.035l-0.003,-0.032l-0.004,-0.034l-0.005,-0.034l-0.005,-0.033l-0.007,-0.034l-0.007,-0.034l-0.008,-0.031l-0.009,-0.033l-0.009,-0.032l-0.01,-0.031l-0.012,-0.033l-0.011,-0.031l-0.012,-0.029l-0.013,-0.029l-0.015,-0.031l-0.015,-0.032l-0.015,-0.027l-0.016,-0.028l-0.017,-0.03l-0.017,-0.027l-0.018,-0.027l-0.019,-0.028l-0.02,-0.027l-0.019,-0.024l-0.02,-0.026l-0.023,-0.027l-0.021,-0.024l-0.022,-0.023l-0.023,-0.023l-0.024,-0.024l-0.024,-0.022l-0.024,-0.021l-0.026,-0.023l-0.025,-0.02l-0.026,-0.02l-0.026,-0.019l-0.027,-0.018l-0.029,-0.02l-0.028,-0.017l-0.027,-0.016l-0.029,-0.016l-0.029,-0.016l-0.029,-0.014l-0.031,-0.014l-0.03,-0.013l-0.03,-0.013l-0.032,-0.012l-0.031,-0.011l-0.031,-0.01l-0.032,-0.01l-0.033,-0.008l-0.032,-0.008l-0.033,-0.007l-0.033,-0.007l-0.034,-0.005l-0.034,-0.005l-0.034,-0.004l-0.034,-0.003l-0.035,-0.002l-0.036,-0.002l-0.041,0l-7.074,0Z" style="fill:#0081d5;"/>
                </g>
                <path id="Checked-Icon1" serif:id="Checked Icon" d="M17.505,10.943l-3.834,3.872l-1.58,-1.599c-0.191,-0.192 -0.501,-0.192 -0.691,0c-0.191,0.193 -0.191,0.506 0,0.699l1.915,1.937c0.098,0.099 0.227,0.146 0.356,0.144c0.128,0.002 0.257,-0.045 0.355,-0.144l4.171,-4.211c0.19,-0.193 0.19,-0.505 0,-0.698c-0.191,-0.193 -0.501,-0.193 -0.692,0Z" style="fill:#0081d5;"/>
            </g>
            <text x="29.895px" y="16.566px" style="font-family:'ArialNarrow', 'Arial', sans-serif;font-stretch:condensed;font-size:9px;fill:#fff;">Показывать тень</text>
        </g>
    </g>
</svg>
